<svg xmlns="http://www.w3.org/2000/svg" xmlns:xlink="http://www.w3.org/1999/xlink" xmlns:inkscape="http://www.inkscape.org/namespaces/inkscape" version="1.1" width="227" height="227" viewBox="0 0 227 227">
<defs>
<clipPath id="clip_1">
<path d="M0 0H227V227H0Z"/>
</clipPath>
<clipPath id="clip_2">
<path d="M0 0H227V227H0Z"/>
</clipPath>
<clipPath id="clip_3">
<path d="M0 0H227V227H0Z"/>
</clipPath>
<clipPath id="clip_4">
<path d="M0 0H227V227H0Z"/>
</clipPath>
<clipPath id="clip_5">
<path d="M0 0H227V227H0Z"/>
</clipPath>
<clipPath id="clip_6">
<path d="M0 0H227V227H0Z"/>
</clipPath>
<clipPath id="clip_7">
<path d="M0 0H227V227H0Z"/>
</clipPath>
<clipPath id="clip_8">
<path d="M0 0H227V227H0Z"/>
</clipPath>
<clipPath id="clip_9">
<path d="M0 0H227V227H0Z"/>
</clipPath>
<clipPath id="clip_10">
<path d="M0 0H227V227H0Z"/>
</clipPath>
<clipPath id="clip_11">
<path d="M0 0H227V227H0Z"/>
</clipPath>
<clipPath id="clip_12">
<path d="M0 0H227V227H0Z"/>
</clipPath>
<clipPath id="clip_13">
<path d="M0 0H227V227H0Z"/>
</clipPath>
<clipPath id="clip_14">
<path d="M0 0H227V227H0Z"/>
</clipPath>
<clipPath id="clip_15">
<path d="M0 0H227V227H0Z"/>
</clipPath>
<clipPath id="clip_16">
<path d="M0 0H227V227H0Z"/>
</clipPath>
<clipPath id="clip_17">
<path d="M0 0H227V227H0Z"/>
</clipPath>
<clipPath id="clip_18">
<path d="M0 0H227V227H0Z"/>
</clipPath>
<clipPath id="clip_19">
<path d="M0 0H227V227H0Z"/>
</clipPath>
<clipPath id="clip_20">
<path d="M0 0H227V227H0Z"/>
</clipPath>
<clipPath id="clip_21">
<path d="M0 0H227V227H0Z"/>
</clipPath>
<clipPath id="clip_22">
<path d="M0 0H227V227H0Z"/>
</clipPath>
<clipPath id="clip_23">
<path d="M0 0H227V227H0Z"/>
</clipPath>
<clipPath id="clip_24">
<path d="M0 0H227V227H0Z"/>
</clipPath>
<clipPath id="clip_25">
<path d="M0 0H227V227H0Z"/>
</clipPath>
<clipPath id="clip_26">
<path d="M0 0H227V227H0Z"/>
</clipPath>
<path id="font_27_1" d="M.5439453 .21694947C.5439453 .17264812 .53271487 .13331096 .5102539 .09893799 .48779298 .064575199 .45540367 .03786723 .41308595 .018814087 .37076823-.00023905437 .3211263-.009765625 .26416017-.009765625 .21663411-.009765625 .17675781-.0064290368 .14453125 .00024414063 .11230469 .006917318 .07877604 .018554688 .043945314 .03515625V.20703125C.080729167 .18815105 .11897787 .17342122 .1586914 .1628418 .19840496 .15226238 .23486328 .14697266 .2680664 .14697266 .29671226 .14697266 .31770835 .15194702 .3310547 .16189575 .34440104 .17185466 .35107423 .18466695 .35107423 .20033264 .35107423 .21010845 .34838868 .21865845 .34301759 .22598267 .33764649 .23331706 .32902018 .24072774 .31713868 .24821472 .30525718 .25571189 .27360026 .27102153 .22216797 .29414369 .17561849 .31532289 .14070638 .33584596 .11743164 .3557129 .0941569 .37557984 .0769043 .39838157 .06567383 .42411805 .05444336 .44985453 .048828126 .48031108 .048828126 .5154877 .048828126 .58128359 .072753909 .6325836 .12060547 .6693878 .16845703 .7062022 .23421224 .7246094 .3178711 .7246094 .3917643 .7246094 .4671224 .70751956 .5439453 .67333987L.48486329 .52441409C.4181315 .555013 .3605143 .5703125 .31201173 .5703125 .28694663 .5703125 .26871745 .5659027 .25732423 .55708315 .24593099 .54827377 .24023438 .53733828 .24023438 .52427676 .24023438 .51026919 .24747722 .49772645 .2619629 .48664857 .27644859 .47558085 .31575523 .4553884 .3798828 .42607118 .44140626 .39838157 .48413087 .36865745 .50805667 .3368988 .5319824 .30514018 .5439453 .26515708 .5439453 .21694947Z"/>
<path id="font_27_2" d="M.39501954 .56640627C.3491211 .56640627 .3133138 .547582 .28759767 .5099335 .2618815 .47229515 .24902344 .4204 .24902344 .35424806 .24902344 .2167155 .30126954 .14794922 .40576173 .14794922 .43733726 .14794922 .4679362 .15234375 .4975586 .16113281 .52718099 .16992188 .5569661 .1805013 .58691409 .1928711V.029785157C.52734377 .0034179688 .45996095-.009765625 .38476563-.009765625 .27701823-.009765625 .19441732 .02150472 .13696289 .08404541 .07950846 .1465861 .05078125 .23697917 .05078125 .3552246 .05078125 .4291687 .064697269 .4941508 .0925293 .5501709 .12036133 .6062012 .16040039 .6492818 .21264649 .67941287 .26489259 .7095439 .32633464 .7246094 .39697267 .7246094 .4741211 .7246094 .54785159 .70784506 .61816409 .6743164L.55908206 .52246096C.53271487 .53483077 .50634768 .5452474 .47998048 .55371096 .45361329 .5621745 .42529298 .56640627 .39501954 .56640627Z"/>
<path id="font_27_3" d="M.07714844 0V.7138672H.2709961V0H.07714844Z"/>
<path id="font_27_4" d="M.50097659 0H.07714844V.7138672H.50097659V.55908206H.27001954V.44726563H.48388673V.29248048H.27001954V.15722656H.50097659V0Z"/>
<path id="font_27_5" d="M.75683596 0H.50390627L.24316406 .5029297H.23876953C.24495442 .42382813 .24804688 .363444 .24804688 .32177735V0H.07714844V.7138672H.32910157L.5888672 .21777344H.5917969C.58723959 .28971354 .58496096 .3474935 .58496096 .39111329V.7138672H.75683596V0Z"/>
<path id="font_27_6" d=""/>
<path id="font_27_7" d="M.7451172 .3581543C.7451172 .23795574 .71565756 .1465861 .6567383 .08404541 .59781906 .02150472 .51155599-.009765625 .39794923-.009765625 .28597007-.009765625 .20011394 .02166748 .14038086 .08453369 .08064779 .1473999 .05078125 .2389323 .05078125 .35913087 .05078125 .47802735 .08048502 .56882736 .13989258 .63153079 .19930013 .6942342 .28564454 .72558596 .39892579 .72558596 .51253256 .72558596 .5986328 .69447836 .65722659 .6322632 .7158203 .57004806 .7451172 .47867839 .7451172 .3581543M.25390626 .3581543C.25390626 .2199707 .30192057 .1508789 .39794923 .1508789 .44677735 .1508789 .48299156 .16766358 .5065918 .20123291 .5301921 .23480225 .5419922 .28710938 .5419922 .3581543 .5419922 .42952476 .5300293 .48223878 .5061035 .5162964 .48217774 .550354 .4464518 .5673828 .39892579 .5673828 .3022461 .5673828 .25390626 .49763999 .25390626 .3581543Z"/>
<path id="font_27_8" d="M.68408206 .7138672V.2841797C.68408206 .1907552 .6576335 .1184082 .6047363 .06713867 .5518392 .01586914 .47558595-.009765625 .37597657-.009765625 .27864585-.009765625 .20385742 .015136719 .15161133 .064941409 .099365238 .114746097 .07324219 .18636067 .07324219 .27978517V.7138672H.26708985V.29492188C.26708985 .24446614 .27652995 .20784505 .29541017 .1850586 .31429038 .16227214 .3421224 .1508789 .37890626 .1508789 .41829429 .1508789 .44685874 .16219075 .4645996 .18481446 .48234049 .20743816 .49121095 .24446614 .49121095 .29589845V.7138672H.68408206Z"/>
<path id="font_27_9" d="M.47802735 .7138672H.69384768L.45996095 0H.23291016L0 .7138672H.21679688L.31396485 .35205079C.33414714 .27164714 .34521485 .21565755 .34716798 .18408203 .34944663 .20686849 .3540039 .23535156 .36083985 .26953126 .36767579 .30371095 .3736979 .3305664 .37890626 .35009767L.47802735 .7138672Z"/>
<path id="font_27_10" d="M.27001954 .25976563V0H.07714844V.7138672H.31103517C.5050456 .7138672 .6020508 .6435547 .6020508 .5029297 .6020508 .4202474 .5616862 .35628257 .48095704 .31103517L.68896487 0H.47021485L.31884767 .25976563H.27001954M.27001954 .40478517H.30615235C.37353517 .40478517 .40722657 .4345703 .40722657 .49414063 .40722657 .54329428 .3741862 .5678711 .30810548 .5678711H.27001954V.40478517Z"/>
<path id="font_27_11" d="M.39208985 0H.19921875V.55615237H.024902344V.7138672H.56591799V.55615237H.39208985V0Z"/>
<clipPath id="clip_28">
<path d="M0 0H227V227H0Z"/>
</clipPath>
</defs>
<g>
<g clip-path="url(#clip_1)">
<path d="M111.133 42.59C111.121 41.898 111.672 41.328 112.363 41.316 113.055 41.309 113.625 41.859 113.637 42.551 113.645 43.238 113.094 43.812 112.406 43.82H112.383C111.703 43.82 111.141 43.27 111.133 42.59M116.348 43.871C115.656 43.84 115.117 43.262 115.145 42.57 115.176 41.879 115.758 41.34 116.449 41.367 117.137 41.398 117.668 41.98 117.648 42.672 117.617 43.34 117.059 43.871 116.387 43.871ZM107.129 42.832C107.078 42.148 107.59 41.551 108.281 41.5 108.969 41.449 109.57 41.969 109.621 42.648 109.672 43.34 109.152 43.941 108.461 43.992H108.371C107.719 43.992 107.168 43.488 107.129 42.832M120.281 44.141C119.59 44.07 119.09 43.461 119.152 42.77 119.219 42.078 119.832 41.578 120.523 41.648 121.203 41.711 121.715 42.32 121.645 43.012 121.582 43.66 121.035 44.141 120.402 44.141ZM103.133 43.301C103.043 42.621 103.535 41.988 104.215 41.898 104.906 41.809 105.527 42.301 105.617 42.98 105.707 43.672 105.227 44.293 104.535 44.383 104.484 44.391 104.426 44.391 104.375 44.391 103.754 44.391 103.215 43.93 103.133 43.301M124.195 44.633C123.504 44.523 123.035 43.883 123.145 43.199 123.246 42.52 123.887 42.051 124.566 42.148 125.258 42.262 125.727 42.902 125.617 43.582 125.527 44.203 124.988 44.641 124.387 44.641 124.316 44.641 124.254 44.641 124.195 44.633M99.18 43.992C99.059 43.32 99.5 42.66 100.184 42.539 100.863 42.41 101.512 42.859 101.645 43.543 101.773 44.211 101.324 44.871 100.645 45.004 100.562 45.012 100.492 45.023 100.41 45.023 99.82 45.023 99.289 44.602 99.18 43.992M128.07 45.332C127.391 45.191 126.961 44.531 127.109 43.852 127.25 43.18 127.91 42.738 128.59 42.891 129.262 43.031 129.703 43.691 129.551 44.371 129.43 44.961 128.91 45.363 128.332 45.363 128.238 45.363 128.16 45.352 128.07 45.332M95.277 44.914C95.105 44.242 95.516 43.562 96.188 43.402 96.859 43.23 97.539 43.641 97.707 44.312 97.867 44.984 97.457 45.664 96.789 45.832 96.688 45.852 96.586 45.863 96.488 45.863 95.93 45.863 95.418 45.484 95.277 44.914M131.902 46.266C131.234 46.082 130.844 45.395 131.023 44.73 131.203 44.062 131.895 43.672 132.562 43.852 133.227 44.031 133.613 44.723 133.434 45.395 133.285 45.945 132.785 46.312 132.234 46.312 132.125 46.312 132.012 46.293 131.902 46.266M91.422 46.055C91.223 45.395 91.594 44.691 92.254 44.492 92.914 44.281 93.613 44.664 93.816 45.312 94.016 45.973 93.645 46.676 92.984 46.883 92.863 46.914 92.742 46.934 92.625 46.934 92.082 46.934 91.594 46.594 91.422 46.055M135.68 47.414C135.016 47.195 134.668 46.484 134.887 45.832 135.105 45.172 135.816 44.82 136.469 45.043 137.117 45.262 137.48 45.973 137.262 46.625 137.078 47.145 136.59 47.477 136.066 47.477 135.938 47.477 135.809 47.457 135.68 47.414M87.648 47.406C87.41 46.766 87.738 46.043 88.391 45.805 89.031 45.562 89.75 45.895 89.992 46.531 90.23 47.184 89.902 47.906 89.25 48.145H89.262C89.109 48.195 88.969 48.227 88.82 48.227 88.309 48.227 87.828 47.914 87.648 47.406M139.383 48.777C138.742 48.516 138.43 47.797 138.68 47.145 138.941 46.504 139.672 46.195 140.312 46.453 140.953 46.703 141.266 47.434 141.016 48.074 140.812 48.566 140.344 48.867 139.844 48.867 139.691 48.867 139.531 48.836 139.383 48.777M83.957 48.977C83.684 48.348 83.977 47.605 84.605 47.324 85.234 47.055 85.977 47.336 86.258 47.977 86.527 48.605 86.238 49.348 85.605 49.617 85.445 49.688 85.277 49.727 85.105 49.727 84.625 49.727 84.168 49.445 83.957 48.977M143.004 50.348C142.375 50.059 142.105 49.309 142.402 48.688 142.695 48.055 143.438 47.785 144.066 48.074V48.086C144.688 48.375 144.957 49.117 144.668 49.746 144.457 50.199 144.004 50.469 143.535 50.469 143.355 50.469 143.176 50.43 143.004 50.348M80.359 50.746C80.051 50.129 80.301 49.379 80.914 49.066 81.535 48.758 82.285 48.996 82.594 49.617 82.902 50.238 82.664 50.988 82.043 51.301 81.863 51.391 81.672 51.438 81.48 51.438 81.023 51.43 80.582 51.18 80.359 50.746M146.527 52.121C145.918 51.801 145.699 51.039 146.02 50.43 146.348 49.816 147.109 49.586 147.719 49.918 148.332 50.246 148.551 51.008 148.23 51.621 148 52.031 147.57 52.27 147.117 52.27 146.918 52.27 146.719 52.219 146.527 52.121M76.879 52.719C76.527 52.129 76.727 51.359 77.328 51.008 77.93 50.668 78.691 50.867 79.039 51.469 79.391 52.059 79.18 52.828 78.59 53.18 78.391 53.289 78.168 53.352 77.957 53.352 77.531 53.352 77.109 53.121 76.879 52.719M149.953 54.094C149.359 53.73 149.172 52.961 149.543 52.371 149.902 51.781 150.672 51.598 151.262 51.961 151.844 52.32 152.035 53.102 151.672 53.68 151.434 54.07 151.023 54.281 150.602 54.281 150.383 54.281 150.152 54.223 149.953 54.094M73.504 54.895C73.125 54.312 73.285 53.539 73.855 53.16 74.434 52.781 75.215 52.941 75.598 53.52 75.977 54.094 75.805 54.871 75.238 55.254 75.027 55.395 74.785 55.453 74.547 55.453 74.145 55.453 73.746 55.254 73.504 54.895M153.254 56.254C152.684 55.863 152.543 55.082 152.934 54.512 153.336 53.953 154.117 53.812 154.676 54.203 155.246 54.594 155.387 55.375 154.996 55.945 154.746 56.293 154.355 56.473 153.965 56.473 153.715 56.473 153.465 56.402 153.254 56.254M70.25 57.246C69.84 56.695 69.961 55.914 70.512 55.504 71.07 55.082 71.852 55.203 72.262 55.754 72.672 56.312 72.562 57.094 72.004 57.504 71.781 57.676 71.523 57.754 71.262 57.754 70.883 57.754 70.5 57.586 70.25 57.246M156.43 58.598C155.879 58.176 155.789 57.387 156.207 56.844 156.637 56.293 157.43 56.203 157.969 56.625 158.512 57.055 158.613 57.836 158.18 58.387 157.941 58.695 157.57 58.867 157.199 58.867 156.93 58.867 156.66 58.777 156.43 58.598M67.148 59.789C66.707 59.258 66.777 58.465 67.309 58.027 67.84 57.586 68.629 57.656 69.07 58.188 69.512 58.715 69.441 59.508 68.91 59.949 68.68 60.148 68.391 60.238 68.109 60.238 67.75 60.238 67.387 60.086 67.148 59.789M159.461 61.117C158.941 60.66 158.891 59.867 159.352 59.355 159.801 58.836 160.594 58.777 161.113 59.238 161.633 59.699 161.684 60.488 161.223 61.008 160.984 61.289 160.633 61.43 160.293 61.43 159.992 61.43 159.703 61.328 159.461 61.117M64.188 62.5C63.715 61.988 63.734 61.199 64.246 60.73 64.746 60.258 65.535 60.277 66.008 60.789 66.488 61.289 66.457 62.078 65.957 62.551L65.945 62.559C65.707 62.781 65.406 62.891 65.098 62.891 64.766 62.891 64.426 62.758 64.188 62.5M162.355 63.801C161.863 63.32 161.855 62.531 162.336 62.031 162.824 61.539 163.617 61.531 164.105 62.02 164.598 62.5 164.605 63.293 164.125 63.793 163.875 64.043 163.555 64.16 163.234 64.16 162.914 64.16 162.594 64.043 162.355 63.801M61.383 65.363C60.883 64.883 60.863 64.09 61.344 63.602 61.812 63.102 62.605 63.082 63.105 63.562 63.605 64.031 63.625 64.832 63.145 65.324 62.902 65.582 62.574 65.715 62.242 65.715 61.934 65.715 61.621 65.602 61.383 65.363M165.086 66.645C164.617 66.133 164.656 65.344 165.168 64.883 165.676 64.414 166.469 64.453 166.938 64.961 167.398 65.473 167.371 66.262 166.848 66.734 166.609 66.945 166.309 67.055 166.008 67.055 165.668 67.055 165.328 66.914 165.086 66.645M58.738 68.395C58.207 67.945 58.148 67.156 58.602 66.625 59.051 66.105 59.84 66.043 60.359 66.484 60.883 66.934 60.953 67.727 60.5 68.258 60.25 68.547 59.902 68.688 59.551 68.688 59.262 68.688 58.969 68.594 58.738 68.395M167.648 69.637C167.219 69.098 167.301 68.316 167.84 67.875 168.371 67.445 169.16 67.527 169.602 68.055 170.031 68.594 169.953 69.387 169.41 69.816 169.18 70.008 168.902 70.098 168.629 70.098 168.262 70.098 167.898 69.938 167.648 69.637M56.266 71.559C55.719 71.141 55.617 70.359 56.027 69.809 56.445 69.258 57.238 69.148 57.789 69.566 58.328 69.988 58.438 70.77 58.027 71.32H58.02C57.777 71.648 57.406 71.82 57.027 71.82 56.758 71.82 56.496 71.73 56.266 71.559M170.051 72.77C169.652 72.211 169.773 71.418 170.332 71.02 170.895 70.617 171.672 70.738 172.074 71.301 172.484 71.859 172.355 72.641 171.793 73.051 171.574 73.211 171.324 73.281 171.062 73.281 170.684 73.281 170.293 73.102 170.051 72.77M53.984 74.863C53.414 74.484 53.266 73.703 53.645 73.133H53.652C54.035 72.559 54.816 72.398 55.387 72.789 55.957 73.18 56.105 73.961 55.719 74.531H55.727C55.484 74.895 55.086 75.082 54.684 75.082 54.445 75.082 54.203 75.012 53.984 74.863M172.266 76.023C171.895 75.445 172.062 74.672 172.645 74.301 173.227 73.922 174.008 74.094 174.379 74.672 174.746 75.262 174.578 76.035 173.996 76.406 173.785 76.543 173.555 76.605 173.316 76.605 172.906 76.605 172.504 76.406 172.266 76.023M51.891 78.297C51.293 77.938 51.102 77.176 51.453 76.574 51.812 75.984 52.574 75.793 53.176 76.145 53.766 76.496 53.953 77.266 53.605 77.855 53.375 78.258 52.953 78.465 52.531 78.465 52.312 78.465 52.094 78.418 51.891 78.297M174.285 79.406C173.957 78.797 174.168 78.035 174.766 77.695 175.367 77.355 176.137 77.574 176.469 78.176 176.809 78.777 176.598 79.539 176 79.879 175.801 79.988 175.59 80.039 175.387 80.039 174.945 80.039 174.516 79.809 174.285 79.406M49.992 81.84C49.379 81.52 49.141 80.758 49.461 80.148 49.781 79.539 50.539 79.297 51.152 79.617 51.762 79.938 52.004 80.699 51.684 81.309 51.453 81.73 51.023 81.98 50.57 81.98 50.371 81.98 50.172 81.93 49.992 81.84M176.117 82.891H176.129C175.816 82.27 176.078 81.52 176.699 81.219 177.32 80.91 178.07 81.168 178.371 81.789 178.672 82.41 178.422 83.16 177.801 83.461 177.621 83.551 177.43 83.59 177.25 83.59 176.789 83.59 176.34 83.332 176.117 82.891M48.297 85.484C47.668 85.191 47.387 84.453 47.668 83.832V83.82C47.961 83.191 48.699 82.922 49.328 83.203 49.961 83.48 50.242 84.23 49.949 84.863V84.852C49.738 85.312 49.289 85.594 48.809 85.594 48.641 85.594 48.469 85.555 48.297 85.484M177.75 86.477C177.48 85.832 177.781 85.102 178.422 84.832 179.051 84.562 179.793 84.863 180.062 85.504 180.324 86.133 180.031 86.875 179.391 87.137 179.23 87.207 179.07 87.234 178.91 87.234 178.422 87.234 177.961 86.957 177.75 86.477M46.816 89.219C46.168 88.977 45.848 88.246 46.098 87.605 46.348 86.965 47.066 86.637 47.711 86.887 48.359 87.137 48.68 87.855 48.43 88.508 48.238 88.996 47.77 89.309 47.27 89.309 47.117 89.309 46.969 89.277 46.816 89.219M179.172 90.137C178.941 89.488 179.281 88.777 179.934 88.547 180.594 88.316 181.305 88.648 181.535 89.297 181.766 89.949 181.422 90.668 180.773 90.898 180.633 90.949 180.492 90.969 180.352 90.969 179.844 90.969 179.363 90.648 179.172 90.137M45.547 93.039C44.887 92.828 44.523 92.121 44.734 91.461V91.469C44.945 90.809 45.656 90.449 46.309 90.66 46.969 90.867 47.328 91.57 47.117 92.23 46.949 92.762 46.457 93.102 45.926 93.102 45.805 93.102 45.676 93.082 45.547 93.039M180.395 93.891C180.191 93.223 180.574 92.531 181.242 92.34 181.902 92.141 182.598 92.52 182.797 93.191 182.984 93.852 182.605 94.543 181.945 94.742 181.824 94.773 181.715 94.793 181.594 94.793 181.055 94.793 180.555 94.434 180.395 93.891M44.504 96.914C43.836 96.746 43.434 96.055 43.605 95.395 43.773 94.723 44.457 94.312 45.125 94.492 45.797 94.664 46.195 95.344 46.027 96.016 45.879 96.574 45.367 96.957 44.816 96.957 44.715 96.957 44.605 96.934 44.504 96.914M181.395 97.707C181.234 97.035 181.652 96.355 182.324 96.203 182.996 96.043 183.676 96.465 183.824 97.137 183.984 97.816 183.566 98.488 182.895 98.637 182.797 98.668 182.703 98.676 182.605 98.676 182.043 98.676 181.523 98.285 181.395 97.707M43.676 100.84C42.996 100.711 42.562 100.047 42.691 99.367 42.836 98.695 43.484 98.258 44.164 98.387 44.844 98.527 45.285 99.176 45.145 99.859 45.035 100.457 44.504 100.871 43.926 100.871 43.844 100.871 43.766 100.859 43.676 100.84M182.176 101.57C182.055 100.891 182.504 100.238 183.195 100.117 183.875 100.008 184.52 100.457 184.637 101.148 184.758 101.82 184.297 102.473 183.617 102.59 183.547 102.602 183.477 102.609 183.406 102.609 182.805 102.609 182.273 102.18 182.176 101.57M43.086 104.812C42.395 104.715 41.914 104.082 42.012 103.402 42.113 102.711 42.742 102.242 43.422 102.332 44.105 102.43 44.586 103.062 44.496 103.754 44.406 104.371 43.863 104.824 43.254 104.824 43.195 104.824 43.133 104.824 43.086 104.812M182.734 105.473C182.656 104.781 183.145 104.164 183.836 104.082 184.52 104.004 185.137 104.504 185.219 105.184 185.297 105.875 184.797 106.496 184.117 106.574 184.066 106.574 184.016 106.586 183.977 106.586 183.348 106.586 182.805 106.113 182.734 105.473M42.703 108.805C42.012 108.746 41.5 108.148 41.562 107.457 41.613 106.766 42.223 106.254 42.914 106.316 43.605 106.375 44.113 106.977 44.055 107.668 44.004 108.316 43.453 108.816 42.805 108.816 42.773 108.816 42.734 108.805 42.703 108.805M183.066 109.398C183.023 108.707 183.559 108.117 184.246 108.078 184.938 108.035 185.527 108.566 185.566 109.258 185.609 109.949 185.078 110.539 184.387 110.578H184.316C183.664 110.578 183.105 110.07 183.066 109.398M42.555 112.82C41.863 112.801 41.32 112.223 41.34 111.539V111.531C41.363 110.84 41.934 110.297 42.625 110.32 43.312 110.34 43.855 110.91 43.844 111.598 43.824 112.281 43.262 112.82 42.582 112.82ZM183.184 113.504C183.184 113.473 183.184 113.453 183.195 113.422 183.184 113.391 183.184 113.371 183.184 113.344 183.184 112.652 183.746 112.09 184.438 112.09 185.129 112.09 185.688 112.641 185.688 113.344V113.504C185.688 114.191 185.129 114.754 184.438 114.754 183.746 114.754 183.184 114.191 183.184 113.504M41.34 115.625C41.32 114.934 41.863 114.352 42.555 114.332 43.246 114.312 43.824 114.852 43.844 115.543 43.863 116.234 43.324 116.812 42.633 116.836H42.594C41.914 116.836 41.363 116.293 41.34 115.625M184.258 118.758C183.566 118.727 183.035 118.137 183.074 117.445V117.438C183.117 116.754 183.707 116.227 184.398 116.266 185.086 116.305 185.617 116.895 185.578 117.586 185.539 118.246 184.988 118.766 184.328 118.766 184.309 118.766 184.285 118.758 184.258 118.758M41.57 119.699C41.512 119.008 42.023 118.395 42.715 118.348 43.402 118.285 44.004 118.797 44.062 119.488V119.477C44.125 120.168 43.613 120.781 42.922 120.84H42.824C42.172 120.84 41.633 120.348 41.57 119.699M183.855 122.75C183.164 122.68 182.676 122.062 182.746 121.371 182.824 120.688 183.445 120.188 184.125 120.27 184.816 120.348 185.309 120.961 185.238 121.648 185.168 122.289 184.625 122.762 183.996 122.762 183.945 122.762 183.895 122.762 183.855 122.75M42.031 123.754C41.934 123.07 42.414 122.441 43.094 122.34 43.785 122.242 44.414 122.723 44.516 123.402 44.605 124.082 44.133 124.723 43.453 124.812 43.395 124.824 43.336 124.832 43.273 124.832 42.664 124.832 42.125 124.383 42.031 123.754M183.227 126.715C182.535 126.605 182.086 125.953 182.195 125.273 182.316 124.594 182.957 124.133 183.645 124.254 184.328 124.363 184.777 125.012 184.668 125.695 184.559 126.305 184.027 126.734 183.438 126.734 183.367 126.734 183.297 126.734 183.227 126.715M42.723 127.777C42.582 127.105 43.023 126.445 43.707 126.305 44.387 126.176 45.047 126.613 45.176 127.285 45.316 127.965 44.875 128.629 44.195 128.758 44.113 128.777 44.023 128.789 43.945 128.789 43.363 128.789 42.844 128.379 42.723 127.777M182.363 130.641C181.695 130.488 181.273 129.82 181.422 129.137 181.582 128.469 182.254 128.047 182.926 128.207 183.598 128.355 184.016 129.027 183.867 129.699 183.734 130.277 183.215 130.668 182.645 130.668 182.555 130.668 182.453 130.66 182.363 130.641M43.645 131.762C43.465 131.09 43.863 130.406 44.535 130.238 45.207 130.059 45.887 130.461 46.066 131.129 46.238 131.801 45.836 132.48 45.168 132.66 45.066 132.68 44.957 132.703 44.855 132.703 44.293 132.703 43.785 132.32 43.645 131.762M181.285 134.504C180.621 134.312 180.242 133.621 180.434 132.961 180.633 132.293 181.324 131.91 181.984 132.109 182.645 132.301 183.035 132.992 182.836 133.652 182.676 134.203 182.184 134.562 181.637 134.562 181.523 134.562 181.402 134.543 181.285 134.504M44.785 135.684C44.574 135.023 44.934 134.324 45.598 134.113 46.246 133.895 46.949 134.254 47.168 134.914 47.379 135.574 47.016 136.273 46.355 136.484 46.238 136.535 46.105 136.555 45.977 136.555 45.445 136.555 44.957 136.215 44.785 135.684M179.992 138.309C179.344 138.078 179 137.367 179.23 136.715 179.461 136.066 180.172 135.715 180.824 135.945 181.477 136.176 181.812 136.895 181.594 137.547 181.402 138.059 180.922 138.375 180.414 138.375 180.273 138.375 180.133 138.355 179.992 138.309M46.148 139.539C45.906 138.887 46.215 138.164 46.867 137.914 47.508 137.664 48.23 137.988 48.48 138.625H48.488C48.73 139.277 48.41 140 47.77 140.25 47.617 140.309 47.469 140.34 47.316 140.34 46.816 140.34 46.336 140.027 46.148 139.539M178.48 142.031C177.84 141.77 177.539 141.031 177.809 140.398 178.082 139.758 178.812 139.457 179.441 139.73 180.082 139.988 180.383 140.73 180.113 141.359 179.91 141.84 179.453 142.129 178.961 142.129 178.801 142.129 178.641 142.102 178.48 142.031M47.727 143.293C47.438 142.66 47.719 141.918 48.348 141.641 48.98 141.352 49.719 141.629 50.012 142.262 50.289 142.891 50.012 143.633 49.379 143.914 49.219 143.992 49.039 144.023 48.871 144.023 48.391 144.023 47.938 143.754 47.727 143.293M176.762 145.664C176.137 145.363 175.879 144.613 176.18 143.992 176.48 143.371 177.23 143.113 177.852 143.414 178.473 143.723 178.73 144.473 178.43 145.094 178.211 145.535 177.77 145.793 177.301 145.793 177.121 145.793 176.93 145.754 176.762 145.664M49.52 146.957C49.199 146.344 49.43 145.594 50.051 145.273 50.66 144.953 51.41 145.184 51.73 145.793 52.051 146.406 51.824 147.168 51.203 147.488 51.023 147.586 50.82 147.625 50.621 147.625 50.172 147.625 49.738 147.387 49.52 146.957M174.828 149.199C174.227 148.859 174.008 148.098 174.348 147.496 174.688 146.887 175.449 146.676 176.051 147.008 176.66 147.344 176.867 148.105 176.539 148.719 176.301 149.129 175.879 149.359 175.438 149.359 175.238 149.359 175.027 149.309 174.828 149.199M51.512 150.52C51.16 149.93 51.352 149.156 51.941 148.797 52.531 148.449 53.305 148.637 53.664 149.238 54.016 149.828 53.824 150.59 53.234 150.949 53.023 151.07 52.805 151.129 52.582 151.129 52.164 151.129 51.742 150.91 51.512 150.52M172.703 152.613C172.125 152.242 171.953 151.461 172.324 150.879 172.695 150.301 173.465 150.129 174.047 150.5 174.637 150.871 174.809 151.641 174.438 152.223 174.195 152.602 173.797 152.801 173.375 152.801 173.145 152.801 172.914 152.742 172.703 152.613M53.703 153.965C53.312 153.383 53.465 152.613 54.035 152.223 54.613 151.832 55.387 151.98 55.777 152.551 56.168 153.133 56.016 153.902 55.445 154.293 55.227 154.434 54.984 154.504 54.746 154.504 54.348 154.504 53.945 154.312 53.703 153.965M170.391 155.895C169.832 155.484 169.711 154.703 170.113 154.141 170.512 153.594 171.293 153.461 171.855 153.863 172.414 154.262 172.547 155.043 172.145 155.613 171.895 155.945 171.512 156.125 171.125 156.125 170.875 156.125 170.613 156.055 170.391 155.895M56.086 157.277C55.668 156.727 55.777 155.934 56.328 155.516 56.879 155.094 57.66 155.203 58.078 155.754 58.5 156.305 58.398 157.086 57.848 157.508 57.617 157.676 57.348 157.766 57.086 157.766 56.707 157.766 56.336 157.598 56.086 157.277M167.898 159.047C167.371 158.605 167.277 157.816 167.719 157.285 168.148 156.746 168.941 156.664 169.48 157.098 170.012 157.535 170.102 158.316 169.66 158.855 169.41 159.168 169.051 159.32 168.691 159.32 168.41 159.32 168.141 159.227 167.898 159.047M58.66 160.449C58.207 159.918 58.27 159.129 58.801 158.688 59.32 158.227 60.109 158.297 60.562 158.816 61.012 159.34 60.953 160.129 60.422 160.578 60.191 160.789 59.902 160.879 59.609 160.879 59.262 160.879 58.91 160.738 58.66 160.449M165.238 162.051C164.727 161.582 164.688 160.789 165.148 160.281H165.156C165.617 159.77 166.41 159.73 166.918 160.188 167.43 160.66 167.469 161.449 167.008 161.961 166.758 162.23 166.418 162.371 166.078 162.371 165.777 162.371 165.477 162.262 165.238 162.051M61.402 163.473C60.922 162.973 60.941 162.18 61.441 161.699 61.941 161.219 62.734 161.242 63.215 161.742 63.684 162.242 63.676 163.031 63.172 163.512 62.934 163.742 62.613 163.852 62.305 163.852 61.973 163.852 61.652 163.734 61.402 163.473M162.414 164.895C161.926 164.402 161.934 163.613 162.426 163.133 162.914 162.641 163.707 162.652 164.195 163.141 164.676 163.633 164.668 164.422 164.176 164.914 163.938 165.145 163.617 165.266 163.305 165.266 162.977 165.266 162.656 165.145 162.414 164.895M64.316 166.336C63.805 165.863 63.773 165.074 64.254 164.574 64.727 164.062 65.516 164.035 66.02 164.504 66.527 164.973 66.547 165.766 66.086 166.277 65.836 166.535 65.496 166.676 65.164 166.676 64.855 166.676 64.555 166.566 64.316 166.336M159.422 167.586C158.973 167.066 159.02 166.277 159.543 165.816 160.051 165.355 160.844 165.402 161.305 165.926 161.766 166.445 161.715 167.238 161.191 167.695 160.953 167.906 160.664 168.008 160.363 168.008 160.023 168.008 159.672 167.867 159.422 167.586M67.379 169.039C66.848 168.598 66.777 167.809 67.219 167.277 67.66 166.746 68.449 166.664 68.98 167.117 69.512 167.559 69.582 168.348 69.141 168.879 68.891 169.168 68.539 169.328 68.18 169.328 67.898 169.328 67.617 169.227 67.379 169.039M156.297 170.098C155.867 169.547 155.969 168.77 156.508 168.336 157.051 167.906 157.84 168.008 158.262 168.547 158.691 169.09 158.602 169.879 158.051 170.309 157.82 170.488 157.551 170.57 157.281 170.57 156.91 170.57 156.539 170.41 156.297 170.098M70.59 171.562C70.039 171.152 69.922 170.367 70.332 169.809 70.742 169.25 71.531 169.137 72.082 169.547 72.633 169.961 72.754 170.738 72.344 171.301 72.102 171.633 71.723 171.812 71.344 171.812 71.082 171.812 70.82 171.73 70.59 171.562M153.027 172.422C152.633 171.859 152.777 171.082 153.344 170.691H153.336C153.906 170.289 154.688 170.43 155.086 170.992 155.477 171.562 155.336 172.34 154.777 172.73V172.742C154.555 172.891 154.305 172.961 154.055 172.961 153.664 172.961 153.277 172.773 153.027 172.422M73.945 173.902C73.375 173.523 73.215 172.742 73.586 172.16 73.965 171.59 74.746 171.43 75.316 171.812 75.898 172.191 76.059 172.961 75.676 173.543 75.438 173.902 75.035 174.102 74.637 174.102 74.395 174.102 74.156 174.035 73.945 173.902M149.641 174.562C149.281 173.984 149.461 173.211 150.051 172.852 150.633 172.48 151.402 172.66 151.762 173.254 152.133 173.844 151.945 174.613 151.363 174.973 151.152 175.105 150.934 175.164 150.703 175.164 150.281 175.164 149.871 174.953 149.641 174.562M77.43 176.047C76.828 175.695 76.629 174.934 76.969 174.332 77.316 173.734 78.078 173.531 78.68 173.871 79.281 174.223 79.48 174.984 79.141 175.586 78.91 175.984 78.48 176.215 78.051 176.215 77.84 176.215 77.629 176.156 77.43 176.047M146.137 176.516C145.809 175.906 146.027 175.145 146.637 174.824 147.25 174.492 148 174.715 148.332 175.324 148.66 175.934 148.441 176.688 147.828 177.016 147.641 177.125 147.441 177.164 147.238 177.164 146.789 177.164 146.359 176.938 146.137 176.516M81.023 177.988C80.414 177.676 80.16 176.926 80.473 176.305 80.781 175.695 81.535 175.445 82.152 175.754 82.762 176.066 83.016 176.816 82.703 177.438 82.484 177.867 82.043 178.117 81.582 178.117 81.402 178.117 81.203 178.078 81.023 177.988M142.523 178.258C142.234 177.637 142.504 176.887 143.125 176.598 143.754 176.305 144.496 176.566 144.785 177.195 145.086 177.816 144.816 178.566 144.188 178.859 144.016 178.938 143.836 178.977 143.656 178.977 143.188 178.977 142.734 178.719 142.523 178.258M84.727 179.73C84.094 179.449 83.805 178.719 84.074 178.078 84.355 177.445 85.086 177.156 85.727 177.438 86.355 177.707 86.648 178.449 86.379 179.078 86.168 179.551 85.707 179.828 85.227 179.828 85.055 179.828 84.887 179.801 84.727 179.73M138.82 179.801C138.559 179.16 138.879 178.43 139.512 178.168 140.152 177.906 140.883 178.219 141.145 178.859 141.402 179.5 141.094 180.23 140.453 180.488 140.305 180.551 140.141 180.578 139.98 180.578 139.492 180.578 139.02 180.289 138.82 179.801M88.531 181.25C87.879 181.012 87.547 180.289 87.789 179.648 88.027 179 88.738 178.668 89.391 178.91 90.043 179.137 90.371 179.859 90.133 180.512 89.949 181.02 89.469 181.332 88.961 181.332 88.82 181.332 88.672 181.301 88.531 181.25M135.035 181.121C134.816 180.469 135.168 179.758 135.816 179.539 136.469 179.32 137.18 179.668 137.41 180.32 137.629 180.969 137.277 181.68 136.617 181.91 136.488 181.953 136.348 181.973 136.219 181.973 135.699 181.973 135.207 181.641 135.035 181.121M92.402 182.551C91.742 182.352 91.371 181.66 91.574 181 91.773 180.34 92.473 179.957 93.137 180.16 93.797 180.371 94.164 181.07 93.965 181.73 93.805 182.262 93.305 182.613 92.773 182.613 92.652 182.613 92.523 182.594 92.402 182.551M131.172 182.23C130.992 181.562 131.383 180.871 132.055 180.691 132.715 180.512 133.406 180.898 133.586 181.562 133.766 182.23 133.387 182.922 132.715 183.102 132.605 183.133 132.492 183.152 132.383 183.152 131.836 183.152 131.324 182.781 131.172 182.23M96.348 183.645C95.68 183.473 95.266 182.801 95.426 182.129 95.586 181.449 96.266 181.039 96.938 181.211 97.609 181.371 98.02 182.051 97.859 182.723 97.719 183.293 97.207 183.672 96.641 183.672 96.547 183.672 96.449 183.664 96.348 183.645M127.258 183.113C127.117 182.441 127.551 181.77 128.219 181.629 128.902 181.48 129.562 181.91 129.703 182.594 129.852 183.262 129.422 183.934 128.75 184.074 128.66 184.094 128.57 184.105 128.48 184.105 127.91 184.105 127.391 183.703 127.258 183.113M100.34 184.492C99.66 184.363 99.211 183.711 99.34 183.031 99.461 182.352 100.109 181.902 100.793 182.031 101.473 182.152 101.922 182.801 101.793 183.492 101.684 184.094 101.164 184.516 100.57 184.516 100.492 184.516 100.422 184.504 100.34 184.492M123.305 183.773C123.195 183.094 123.656 182.453 124.348 182.352 125.027 182.242 125.668 182.711 125.777 183.395 125.879 184.074 125.406 184.715 124.727 184.824H124.734C124.668 184.836 124.605 184.836 124.535 184.836 123.926 184.836 123.395 184.395 123.305 183.773M104.375 185.125C103.695 185.035 103.203 184.402 103.293 183.723 103.375 183.031 104.004 182.551 104.688 182.633 105.375 182.723 105.855 183.352 105.777 184.035 105.695 184.664 105.156 185.125 104.535 185.125ZM119.312 184.211C119.242 183.523 119.742 182.914 120.434 182.852 121.121 182.781 121.734 183.281 121.805 183.973 121.875 184.652 121.363 185.266 120.684 185.336 120.641 185.344 120.594 185.344 120.551 185.344 119.922 185.344 119.371 184.863 119.312 184.211M108.441 185.516C107.75 185.465 107.23 184.875 107.277 184.184 107.328 183.492 107.93 182.973 108.621 183.012H108.609C109.301 183.062 109.82 183.664 109.773 184.355 109.73 185.016 109.18 185.516 108.52 185.516ZM115.305 184.422C115.277 183.734 115.809 183.152 116.496 183.121 117.188 183.094 117.77 183.633 117.801 184.324 117.828 185.016 117.297 185.594 116.609 185.625H116.559C115.887 185.625 115.328 185.094 115.305 184.422M112.523 185.684C111.832 185.676 111.273 185.105 111.281 184.414 111.293 183.723 111.863 183.172 112.555 183.184 113.246 183.191 113.797 183.754 113.785 184.453 113.777 185.133 113.215 185.684 112.535 185.684ZM112.523 185.684" fill="#5d0632"/>
</g>
<g clip-path="url(#clip_2)">
<path d="M113.504 2.668C52.391 2.668 2.672 52.387 2.672 113.5 2.672 174.613 52.391 224.332 113.504 224.332 174.613 224.332 224.332 174.613 224.332 113.5 224.332 52.387 174.613 2.668 113.504 2.668M113.504 226.832C51.008 226.832 .168 175.992 .168 113.5 .168 51.008 51.008 .168 113.504 .168 175.996 .168 226.836 51.008 226.836 113.5 226.836 175.992 175.996 226.832 113.504 226.832" fill="#5d0632"/>
</g>
<g clip-path="url(#clip_3)">
<path d="M36.355 118.535H10.242C9.895 118.535 9.617 118.254 9.617 117.91 9.617 117.562 9.895 117.285 10.242 117.285H36.355C36.699 117.285 36.98 117.562 36.98 117.91 36.98 118.254 36.699 118.535 36.355 118.535" fill="#5d0632"/>
</g>
<g clip-path="url(#clip_4)">
<path d="M217.719 118.535H191.602C191.258 118.535 190.977 118.254 190.977 117.91 190.977 117.562 191.258 117.285 191.602 117.285H217.719C218.062 117.285 218.344 117.562 218.344 117.91 218.344 118.254 218.062 118.535 217.719 118.535" fill="#5d0632"/>
</g>
<g clip-path="url(#clip_5)">
<path d="M21.336 91.137 21.848 88.754 32.246 90.98 31.734 93.359 30.121 93.016C30.961 93.895 31.602 95.043 31.258 96.656 30.754 99 28.891 100.02 26.469 99.504L19.852 98.09 20.363 95.707 26.27 96.969C27.883 97.316 28.98 96.707 29.285 95.289 29.578 93.91 28.82 92.738 27.203 92.395ZM21.336 91.137" fill="#5d0632"/>
</g>
<g clip-path="url(#clip_6)">
<path d="M34.129 85.281 33.258 87.559 23.324 83.754 24.195 81.477 25.738 82.066C25.043 81.066 24.586 79.836 25.176 78.293 26.035 76.055 28.035 75.336 30.352 76.223L36.672 78.641 35.797 80.918 30.156 78.754C28.613 78.164 27.434 78.598 26.914 79.953 26.41 81.27 26.98 82.543 28.52 83.133ZM34.129 85.281" fill="#5d0632"/>
</g>
<g clip-path="url(#clip_7)">
<path d="M38.379 75.367 28.961 70.438 30.09 68.277 39.512 73.211ZM27.469 69.77 25.418 68.695 26.633 66.375 28.684 67.449ZM27.469 69.77" fill="#5d0632"/>
</g>
<g clip-path="url(#clip_8)">
<path d="M36.621 57.801 38.059 55.684 44.488 65.293 43.258 67.109 31.938 64.723 33.406 62.555 41.477 64.566ZM36.621 57.801" fill="#5d0632"/>
</g>
<g clip-path="url(#clip_9)">
<path d="M48.57 50.629C47.301 49.695 45.77 49.555 44.684 50.746 43.684 51.848 43.828 53.398 44.902 54.668ZM50.164 55.285C50.961 54.406 51.203 53.484 51.156 52.301L53.059 52.094C53.277 53.652 52.926 55.211 51.613 56.656 49.543 58.934 46.289 59.191 43.848 56.973 41.578 54.918 41.18 51.645 43.223 49.391 45.496 46.887 48.613 47.406 50.895 49.477 51.059 49.625 51.195 49.777 51.359 49.953L46.109 55.738C47.582 56.691 49.105 56.449 50.164 55.285" fill="#5d0632"/>
</g>
<g clip-path="url(#clip_10)">
<path d="M58.832 49.34 56.977 50.918 50.086 42.824 51.941 41.242 53.496 43.066C52.969 41.426 53.199 39.801 54.676 38.648L56.348 40.613 56.238 40.703C54.617 42.086 54.383 44.113 56.211 46.258ZM58.832 49.34" fill="#5d0632"/>
</g>
<g clip-path="url(#clip_11)">
<path d="M67.008 43.402C65.75 44.242 64.059 44.719 62.375 44.59L62.359 42.613C63.793 42.691 65.078 42.367 65.98 41.762 66.852 41.18 67.109 40.477 66.715 39.891L66.695 39.859C66.234 39.168 65.141 39.562 63.891 39.938 62.34 40.445 60.523 40.883 59.395 39.191L59.371 39.16C58.25 37.484 58.957 35.539 60.715 34.359 61.82 33.621 63.281 33.199 64.633 33.191L64.793 35.168C63.59 35.223 62.477 35.508 61.738 36 60.953 36.527 60.746 37.195 61.094 37.715L61.117 37.75C61.543 38.383 62.676 38.016 63.938 37.656 65.496 37.195 67.344 36.809 68.406 38.395L68.426 38.43C69.672 40.285 68.848 42.172 67.008 43.402" fill="#5d0632"/>
</g>
<g clip-path="url(#clip_12)">
<path d="M73.078 39.477 68.094 30.086 70.246 28.941 75.23 38.336ZM67.242 28.691 66.156 26.645 68.469 25.418 69.555 27.465ZM67.242 28.691" fill="#5d0632"/>
</g>
<g clip-path="url(#clip_13)">
<path d="M80.148 32.422C80.512 33.293 81.105 33.461 81.867 33.141 82.371 32.934 82.77 32.637 83.121 32.227L83.891 34.066C83.465 34.613 82.91 35.066 82.074 35.414 80.418 36.105 78.945 35.867 78.047 33.711L75.891 28.547 74.645 29.066 73.84 27.133 75.082 26.613 73.961 23.918 76.207 22.98 77.332 25.676 79.969 24.574 80.777 26.508 78.141 27.605ZM80.148 32.422" fill="#5d0632"/>
</g>
<g clip-path="url(#clip_14)">
<path d="M87.102 20.84 88.289 17.094 90.684 17.457 88.926 20.34ZM92.332 25.547C91.762 24.074 90.543 23.133 88.992 23.559 87.551 23.953 86.848 25.336 87.07 26.988ZM91.176 30.332C92.324 30.016 93.02 29.367 93.617 28.348L95.332 29.195C94.68 30.625 93.547 31.746 91.664 32.266 88.691 33.078 85.812 31.547 84.938 28.363 84.133 25.41 85.551 22.434 88.484 21.633 91.746 20.738 94.098 22.852 94.914 25.82 94.973 26.035 95.004 26.234 95.051 26.477L87.516 28.535C88.242 30.133 89.664 30.746 91.176 30.332" fill="#5d0632"/>
</g>
<g clip-path="url(#clip_15)">
<path d="M111.215 21.605C111.156 20.465 110.332 19.891 109.055 19.953L107.086 20.055 107.266 23.602 109.285 23.496C110.559 23.434 111.266 22.633 111.215 21.641ZM109.316 25.77 107.379 25.867 107.555 29.348 105.008 29.477 104.418 17.883 109.152 17.641C111.918 17.5 113.676 19.059 113.793 21.426L113.797 21.457C113.934 24.141 111.918 25.637 109.316 25.77" fill="#5d0632"/>
</g>
<g clip-path="url(#clip_16)">
<path d="M121.125 20.848 119.277 24.473 122.355 24.727ZM123.926 29.73 123.078 27.047 118.184 26.648 116.914 29.156 114.316 28.945 120.234 17.691 122.582 17.887 126.586 29.949ZM123.926 29.73" fill="#5d0632"/>
</g>
<g clip-path="url(#clip_17)">
<path d="M137.309 24.613C137.562 23.551 136.953 22.824 135.746 22.535L133.277 21.945 132.504 25.184 135.016 25.785C136.227 26.074 137.074 25.594 137.301 24.645ZM135.484 32.031 133.93 27.844 131.977 27.379 131.117 30.988 128.633 30.395 131.332 19.109 136.488 20.344C139.148 20.98 140.41 22.762 139.855 25.086L139.848 25.117C139.414 26.938 138.156 27.852 136.594 28.039L138.387 32.727ZM135.484 32.031" fill="#5d0632"/>
</g>
<g clip-path="url(#clip_18)">
<path d="M140.758 33.676 144.691 22.754 147.094 23.621 143.16 34.543ZM140.758 33.676" fill="#5d0632"/>
</g>
<g clip-path="url(#clip_19)">
<path d="M149.973 37.656C148.391 36.895 147.055 35.574 146.34 33.848L148.48 32.871C149.047 34.102 149.801 35.07 150.996 35.645 151.938 36.094 152.684 35.996 152.98 35.383L152.992 35.352C153.273 34.77 153.059 34.297 151.523 33.008 149.676 31.461 148.594 30.223 149.594 28.145L149.605 28.113C150.52 26.219 152.648 25.695 154.785 26.719 156.309 27.453 157.379 28.555 158.031 29.918L156.004 31.078C155.383 29.988 154.66 29.164 153.777 28.738 152.898 28.312 152.238 28.496 151.996 29.004L151.98 29.035C151.652 29.723 151.992 30.164 153.578 31.492 155.434 33.066 156.266 34.402 155.387 36.227L155.371 36.258C154.375 38.332 152.23 38.738 149.973 37.656" fill="#5d0632"/>
</g>
<g clip-path="url(#clip_20)">
<path d="M157.785 37.137 159.066 35.082 163.402 37.781 162.121 39.836ZM157.785 37.137" fill="#5d0632"/>
</g>
<g clip-path="url(#clip_21)">
<path d="M165.426 47.332C164.043 46.25 163.027 44.672 162.699 42.832L165.004 42.344C165.293 43.664 165.816 44.773 166.859 45.594 167.68 46.238 168.43 46.301 168.852 45.766L168.871 45.738C169.27 45.23 169.164 44.723 167.945 43.133 166.473 41.219 165.688 39.781 167.113 37.969L167.133 37.941C168.434 36.285 170.625 36.234 172.488 37.699 173.82 38.742 174.625 40.051 174.969 41.523L172.734 42.215C172.367 41.02 171.84 40.055 171.07 39.449 170.301 38.848 169.617 38.883 169.27 39.324L169.25 39.352C168.777 39.953 169.016 40.453 170.277 42.098 171.75 44.035 172.27 45.52 171.02 47.113L171 47.137C169.574 48.949 167.395 48.883 165.426 47.332" fill="#5d0632"/>
</g>
<g clip-path="url(#clip_22)">
<path d="M180.41 49.102 176.625 50.59 178.758 52.816ZM176.613 57.602 177.762 55.035 174.363 51.492 171.75 52.527 169.949 50.645 181.832 46.152 183.461 47.852 178.461 59.531ZM176.613 57.602" fill="#5d0632"/>
</g>
<g clip-path="url(#clip_23)">
<path d="M182.273 65.234C180.293 62.449 180.969 58.852 183.684 56.918L183.711 56.898C186.398 54.984 190.043 55.441 192.113 58.348 193.383 60.133 193.551 61.621 193.312 63.117L190.84 62.879C190.984 61.68 190.859 60.648 190.188 59.703 189.051 58.105 186.91 57.902 185.285 59.055L185.262 59.074C183.637 60.23 183.086 62.312 184.238 63.934 185.008 65.016 185.914 65.371 187.117 65.633L186.723 67.906C184.992 67.676 183.57 67.059 182.273 65.234" fill="#5d0632"/>
</g>
<g clip-path="url(#clip_24)">
<path d="M186.355 71.121 196.645 65.762 197.824 68.023 189.594 72.312 192.266 77.441 190.211 78.516ZM186.355 71.121" fill="#5d0632"/>
</g>
<g clip-path="url(#clip_25)">
<path d="M200.984 82.562 196.922 82.352 197.941 85.266ZM194.008 88.734 196.117 86.871 194.492 82.238 191.684 82.098 190.82 79.641 203.504 80.469 204.281 82.688 194.891 91.254ZM194.008 88.734" fill="#5d0632"/>
</g>
<g clip-path="url(#clip_26)">
<path d="M200.594 96.387 196.062 97.324 195.543 94.824 200.027 93.895 206.008 88.098 206.613 91.02 202.609 94.68 207.746 96.492 208.336 99.336ZM200.594 96.387" fill="#5d0632"/>
</g>
<use data-text="S" xlink:href="#font_27_1" transform="matrix(10.019342,14.97566,14.97566,-10.019342,29.20339,163.41217)" fill="#80cc28"/>
<use data-text="C" xlink:href="#font_27_2" transform="matrix(11.999187,13.441752,13.441752,-11.999187,36.649438,174.27568)" fill="#80cc28"/>
<use data-text="I" xlink:href="#font_27_3" transform="matrix(13.477482,11.95904,11.95904,-13.477482,46.377096,184.70915)" fill="#80cc28"/>
<use data-text="E" xlink:href="#font_27_4" transform="matrix(14.675972,10.453393,10.453393,-14.675972,52.990194,190.52556)" fill="#80cc28"/>
<use data-text="N" xlink:href="#font_27_5" transform="matrix(16.111132,8.067778,8.067778,-16.111132,63.385526,197.90413)" fill="#80cc28"/>
<use data-text="C" xlink:href="#font_27_2" transform="matrix(17.22068,5.301482,5.301482,-17.22068,79.606067,205.60134)" fill="#80cc28"/>
<use data-text="E" xlink:href="#font_27_4" transform="matrix(17.78509,2.889323,2.889323,-17.78509,93.47262,209.60639)" fill="#80cc28"/>
<use data-text=" " xlink:href="#font_27_6" transform="matrix(17.982642,1.132349,1.132349,-17.982642,105.68028,211.33864)" fill="#80cc28"/>
<use data-text="O" xlink:href="#font_27_7" transform="matrix(17.987809,-1.04706,-1.04706,-17.987809,112.97577,211.93204)" fill="#80cc28"/>
<use data-text="U" xlink:href="#font_27_8" transform="matrix(17.543793,-4.107666,-4.107666,-17.543793,130.29122,210.63674)" fill="#80cc28"/>
<use data-text="V" xlink:href="#font_27_9" transform="matrix(16.648133,-6.891568,-6.891568,-16.648133,146.32897,206.59264)" fill="#80cc28"/>
<use data-text="E" xlink:href="#font_27_4" transform="matrix(15.510405,-9.169784,-9.169784,-15.510405,160.30693,200.49365)" fill="#80cc28"/>
<use data-text="R" xlink:href="#font_27_10" transform="matrix(14.087886,-11.233391,-11.233391,-14.087886,171.14212,193.95673)" fill="#80cc28"/>
<use data-text="T" xlink:href="#font_27_11" transform="matrix(12.345486,-13.124274,-13.124274,-12.345486,182.688,184.42467)" fill="#80cc28"/>
<use data-text="E" xlink:href="#font_27_4" transform="matrix(10.535564,-14.617095,-14.617095,-10.535564,191.67272,174.5826)" fill="#80cc28"/>
<g clip-path="url(#clip_28)">
<path d="M117.152 134.172V149.684H110.121V134.172C107.914 132.934 106.406 130.602 106.406 127.891 106.406 123.898 109.645 120.66 113.637 120.66 117.629 120.66 120.863 123.898 120.863 127.891 120.863 130.602 119.355 132.934 117.152 134.172M113.637 98.082C106.113 98.082 99.191 100.578 93.582 104.742V85.625C93.582 74.566 102.578 65.57 113.637 65.57 124.691 65.57 133.688 74.566 133.688 85.625V89.539H141.445V85.625C141.445 70.289 128.973 57.812 113.637 57.812 98.301 57.812 85.824 70.289 85.824 85.625V112.754C82.109 118.172 79.926 124.727 79.926 131.793 79.926 150.406 95.02 165.5 113.637 165.5 132.25 165.5 147.344 150.406 147.344 131.793 147.344 113.176 132.25 98.082 113.637 98.082" fill="#80cc28"/>
</g>
</g>
</svg>
