<svg xmlns="http://www.w3.org/2000/svg" xmlns:xlink="http://www.w3.org/1999/xlink" xmlns:inkscape="http://www.inkscape.org/namespaces/inkscape" version="1.1" width="150" height="53" viewBox="0 0 150 53">
<path transform="matrix(.1,0,0,-.1,0,53)" d="M1455.08 530C1431.72 530 1412.81 511.051 1412.81 487.699 1412.81 464.34 1431.72 445.391 1455.08 445.391 1478.44 445.391 1497.38 464.34 1497.38 487.699 1497.38 511.051 1478.44 530 1455.08 530" fill="#5d0632"/>
<path transform="matrix(.1,0,0,-.1,0,53)" d="M1363.95 381.91C1378.36 381.91 1390.08 393.629 1390.08 408.09 1390.08 422.539 1378.36 434.262 1363.95 434.262 1349.49 434.262 1337.77 422.539 1337.77 408.09 1337.77 393.629 1349.49 381.91 1363.95 381.91" fill="#5d0632"/>
<path transform="matrix(.1,0,0,-.1,0,53)" d="M381.09 179.059H409.2111V337.5H381.09Z" fill="#5d0632"/>
<path transform="matrix(.1,0,0,-.1,0,53)" d="M700.27 340.738C656.879 340.738 624.18 305.23 624.18 258.121 624.18 211.02 658.16 175.512 703.238 175.512 729.84 175.512 749.922 184.648 768.281 205.121L770.039 207.109 751.91 223.359 750.16 221.48C736.602 207.301 721.879 200.699 703.828 200.699 676.988 200.699 656.879 219.262 652.93 247.191H773.711L773.98 249.57C774.301 252.34 774.301 254.801 774.301 256.949 774.301 307.07 744.531 340.738 700.27 340.738M652.93 269.379C656.801 297.07 675.66 316.172 699.648 316.172 729.379 316.172 742.73 292.539 745.59 269.379H652.93" fill="#5d0632"/>
<path transform="matrix(.1,0,0,-.1,0,53)" d="M111.051 179.059H138.871V337.5H111.051V247.191C111.051 220.512 93.2813 201.879 67.8086 201.879 42.9688 201.879 28.1211 218.16 28.1211 245.391V337.5H0V239.77C0 200.941 24.0586 175.82 61.2891 175.82 82.1484 175.82 98.4805 183.711 111.051 199.879V179.059" fill="#5d0632"/>
<path transform="matrix(.1,0,0,-.1,0,53)" d="M301.719 271.172V179.059H329.84V276.801C329.84 315.621 305.781 340.738 268.551 340.738 247.77 340.738 231.09 332.699 218.828 316.801V337.5H190.699V179.059H218.828V269.379C218.828 296.051 236.602 314.691 262.07 314.691 286.879 314.691 301.719 298.441 301.719 271.172" fill="#5d0632"/>
<path transform="matrix(.1,0,0,-.1,0,53)" d="M538.59 177.891 607.5 337.5H577.07L527.07 214.879 477.34 337.5H446.328L514.922 177.891H538.59" fill="#5d0632"/>
<path transform="matrix(.1,0,0,-.1,0,53)" d="M842.969 242.73C842.969 283.75 865.781 310.23 901.02 310.23H905.469V340.039L902.891 340.16C878.32 341.172 856.52 328.398 842.969 305.82V337.5H814.84V179.059H842.969V242.73" fill="#5d0632"/>
<path transform="matrix(.1,0,0,-.1,0,53)" d="M1233.48 176.41C1244.14 176.41 1253.28 178.551 1262.27 183.238L1263.71 183.98V209.379L1259.84 207.539C1252.38 203.949 1246.29 202.461 1238.83 202.461 1223.05 202.461 1215.74 209.691 1215.74 225.27V312.031H1264.3V337.5H1215.74V389.73L1187.58 374.18V337.5H1157.89V312.031H1187.58V222.301C1187.58 192.699 1203.91 176.41 1233.48 176.41" fill="#5d0632"/>
<path transform="matrix(.1,0,0,-.1,0,53)" d="M1368.59 175.512C1395.2 175.512 1415.27 184.648 1433.63 205.121L1435.43 207.109 1417.3 223.359 1415.51 221.48C1401.99 207.301 1387.23 200.699 1369.18 200.699 1342.34 200.699 1322.23 219.262 1318.28 247.191H1439.06L1439.34 249.531C1439.65 252.379 1439.65 254.801 1439.65 256.949 1439.65 307.07 1409.92 340.738 1365.62 340.738 1322.23 340.738 1289.53 305.23 1289.53 258.121 1289.53 211.02 1323.52 175.512 1368.59 175.512M1365.04 316.172C1394.73 316.172 1408.09 292.539 1410.94 269.379H1318.28C1322.15 297.109 1341.02 316.172 1365.04 316.172" fill="#5d0632"/>
<path transform="matrix(.1,0,0,-.1,0,53)" d="M1000.08 271.641 999.531 271.84C980.551 277.578 962.621 283.051 962.621 296.02 962.621 307.73 973.441 315.59 989.57 315.59 1003.48 315.59 1019.06 310.469 1033.4 301.211L1035.74 299.691 1048.83 321.449 1046.68 322.852C1030.27 333.672 1009.14 340.16 990.16 340.16 957.891 340.16 935.391 321.02 935.391 293.672V293.09C935.391 262.191 965.781 253.551 987.93 247.27 1008.48 241.52 1024.18 236.09 1024.18 222.301 1024.18 209.379 1012.54 200.699 995.199 200.699 978.121 200.699 960.352 207.27 943.789 219.691L941.602 221.328 926.988 200.781 928.949 199.219C946.559 184.961 971.449 176.09 993.98 176.09 1028.16 176.09 1051.17 195.621 1051.17 224.691V225.27C1051.17 256.328 1020.43 265.551 1000.08 271.641" fill="#5d0632"/>
<path transform="matrix(.1,0,0,-.1,0,53)" d="M1096.13 179.059H1124.2511V337.5H1096.13Z" fill="#5d0632"/>
<path transform="matrix(.1,0,0,-.1,0,53)" d="M158.051 127.969 106.289 6.37109H133.398L144.449 33.4414H195.469L206.52 6.37109H234.301L182.539 127.969ZM153.91 56.9102 169.961 96.0508 185.98 56.9102ZM153.91 56.9102" fill="#5d0632"/>
<path transform="matrix(.1,0,0,-.1,0,53)" d="M1244.53 127.969 1192.77 6.37109H1219.84L1230.9 33.4414H1281.95L1292.97 6.37109H1320.74L1268.98 127.969ZM1240.39 56.9102 1256.41 96.0508 1272.46 56.9102ZM1240.39 56.9102" fill="#5d0632"/>
<path transform="matrix(.1,0,0,-.1,0,53)" d="M1380.78 78.6289 1351.95 127.109H1320.9L1367.3 53.9805V6.37109H1393.87V54.4883L1440.27 127.109H1410.08L1380.78 78.6289" fill="#5d0632"/>
<path transform="matrix(.1,0,0,-.1,0,53)" d="M49.9219 127.109H.589844V6.37109H27.1484V42.5781H47.3398C74.4102 42.5781 96.1289 57.0703 96.1289 85.0391V85.3516C96.1289 110.039 78.7109 127.109 49.9219 127.109M69.2617 84.4883C69.2617 74.1406 61.4805 66.2109 48.1992 66.2109H27.1484V103.121H47.6992C60.9805 103.121 69.2617 96.7617 69.2617 84.8398V84.4883" fill="#5d0632"/>
<path transform="matrix(.1,0,0,-.1,0,53)" d="M1000.62 28.7891C979.961 28.7891 965.621 46.0195 965.621 66.7188V67.0703C965.621 87.7695 980.27 104.691 1000.62 104.691 1012.7 104.691 1022.19 99.4883 1031.52 91.0508L1048.4 110.551C1037.19 121.559 1023.59 129.141 1000.82 129.141 963.75 129.141 937.852 101.051 937.852 66.7188V66.4102C937.852 31.7188 964.262 4.30078 999.77 4.30078 1023.05 4.30078 1036.84 12.5781 1049.3 25.8594L1032.34 42.9297C1022.89 34.3008 1014.41 28.7891 1000.62 28.7891" fill="#5d0632"/>
<path transform="matrix(.1,0,0,-.1,0,53)" d="M730 78.6289C709.141 83.9805 703.949 86.5586 703.949 94.4883V94.8398C703.949 100.699 709.301 105.352 719.488 105.352 729.648 105.352 740.199 100.898 750.859 93.4414L764.648 113.48C752.422 123.281 737.422 128.828 719.801 128.828 695.16 128.828 677.539 114.34 677.539 92.4219V92.0703C677.539 68.1211 693.238 61.4102 717.578 55.1602 737.73 50 741.879 46.5586 741.879 39.8008V39.4883C741.879 32.4219 735.309 28.0898 724.449 28.0898 710.66 28.0898 699.262 33.7891 688.441 42.7695L672.73 23.9492C687.191 11.0195 705.66 4.64844 723.949 4.64844 750 4.64844 768.281 18.0898 768.281 42.0703V42.4219C768.281 63.4414 754.449 72.2305 730 78.6289" fill="#5d0632"/>
<path transform="matrix(.1,0,0,-.1,0,53)" d="M1110 127.109H1083.44V6.37109H1170.2V30.5117H1110V127.109" fill="#5d0632"/>
<path transform="matrix(.1,0,0,-.1,0,53)" d="M843.16 127.969 791.449 6.37109H818.48L829.531 33.4414H880.59L891.641 6.37109H919.379L867.621 127.969ZM839.02 56.9102 855.039 96.0508 871.09 56.9102ZM839.02 56.9102" fill="#5d0632"/>
<path transform="matrix(.1,0,0,-.1,0,53)" d="M591.84 47.2188H644.9611V72.4219H591.84Z" fill="#5d0632"/>
<path transform="matrix(.1,0,0,-.1,0,53)" d="M366.559 86.9102V87.2305C366.559 112.109 349.488 127.109 321.051 127.109H265.859V6.37109H292.422V45H313.281L339.18 6.37109H370.199L340.699 49.4883C356.051 55.1602 366.559 67.4219 366.559 86.9102M339.691 85.5508C339.691 75.3516 332.27 68.4414 319.301 68.4414H292.422V103.121H318.789C331.762 103.121 339.691 97.2695 339.691 85.8984V85.5508" fill="#5d0632"/>
<path transform="matrix(.1,0,0,-.1,0,53)" d="M404.691 6.37109H431.2496V127.109088H404.691Z" fill="#5d0632"/>
<path transform="matrix(.1,0,0,-.1,0,53)" d="M523.359 78.6289C502.5 83.9805 497.301 86.5586 497.301 94.4883V94.8398C497.301 100.699 502.66 105.352 512.852 105.352 523.012 105.352 533.52 100.898 544.219 93.4414L558.012 113.48C545.781 123.281 530.781 128.828 513.16 128.828 488.52 128.828 470.941 114.34 470.941 92.4219V92.0703C470.941 68.1211 486.602 61.4102 510.941 55.1602 531.129 50 535.27 46.5586 535.27 39.8008V39.4883C535.27 32.4219 528.711 28.0898 517.852 28.0898 504.059 28.0898 492.66 33.7891 481.801 42.7695L466.09 23.9492C480.59 11.0195 499.02 4.64844 517.301 4.64844 543.359 4.64844 561.641 18.0898 561.641 42.0703V42.4219C561.641 63.4414 547.852 72.2305 523.359 78.6289" fill="#5d0632"/>
</svg>
